<svg width="163" height="32" viewBox="0 0 163 32" fill="none" xmlns="http://www.w3.org/2000/svg">
<path d="M15.9848 22.9295C16.1424 22.836 16.3385 22.8361 16.4959 22.9299L22.1122 26.2766L22.1124 26.2767C22.7774 26.6732 23.5511 26.0801 23.3861 25.381L21.8975 19.0879C21.8544 18.9055 21.9169 18.7142 22.0595 18.5925L27.0262 14.3525L27.0264 14.3524C27.5862 13.8749 27.2972 12.9572 26.5404 12.8979L26.5378 12.8977L20.0012 12.3511C19.8171 12.3357 19.6565 12.22 19.5835 12.0504L17.0257 6.10369L17.025 6.10211C16.7376 5.42747 15.7423 5.42747 15.4549 6.10211L15.4541 6.10407L12.8962 12.0374C12.8232 12.2069 12.6627 12.3223 12.4788 12.3377L5.94217 12.8844L5.93956 12.8846L5.93956 12.8846C5.18276 12.9439 4.89371 13.8616 5.45355 14.339L5.45373 14.3392L10.4205 18.5792C10.563 18.7009 10.6256 18.8921 10.5824 19.0746L9.09379 25.3677L15.9848 22.9295ZM15.9848 22.9295L10.3684 26.2628L10.3675 26.2634M15.9848 22.9295L10.3675 26.2634M10.3675 26.2634C9.70263 26.6599 8.92895 26.0669 9.09373 25.3679L10.3675 26.2634Z" fill="#FFBA79" stroke="#FFBA79" stroke-linejoin="round"/>
<path d="M48.4648 22.9295C48.6223 22.836 48.8185 22.8361 48.9759 22.9299L54.5922 26.2766L54.5924 26.2767C55.2574 26.6732 56.0311 26.0801 55.8661 25.381L54.3775 19.0879C54.3344 18.9055 54.3969 18.7142 54.5394 18.5925L59.5062 14.3525L59.5064 14.3524C60.0662 13.8749 59.7771 12.9572 59.0203 12.8979L59.0177 12.8977L52.4811 12.3511C52.2971 12.3357 52.1365 12.22 52.0635 12.0504L49.5057 6.10369L49.505 6.10211C49.2176 5.42747 48.2223 5.42747 47.9349 6.10211L47.934 6.10407L45.3762 12.0374C45.3032 12.2069 45.1427 12.3223 44.9587 12.3377L38.4221 12.8844L38.4195 12.8846L38.4195 12.8846C37.6627 12.9439 37.3737 13.8616 37.9335 14.339L37.9337 14.3392L42.9004 18.5792C43.043 18.7009 43.1055 18.8921 43.0624 19.0746L41.5738 25.3677L48.4648 22.9295ZM48.4648 22.9295L42.8484 26.2628L42.8475 26.2634M48.4648 22.9295L42.8475 26.2634M42.8475 26.2634C42.1826 26.6599 41.4089 26.0669 41.5737 25.3679L42.8475 26.2634Z" fill="#FFBA79" stroke="#FFBA79" stroke-linejoin="round"/>
<path d="M80.9447 22.9295C81.1023 22.836 81.2984 22.8361 81.4559 22.9299L87.0722 26.2766L87.0723 26.2767C87.7373 26.6732 88.5111 26.0801 88.3461 25.381L86.8575 19.0879C86.8143 18.9055 86.8768 18.7142 87.0194 18.5925L91.9862 14.3525L91.9863 14.3524C92.5462 13.8749 92.2571 12.9572 91.5003 12.8979L91.4977 12.8977L84.9611 12.3511C84.777 12.3357 84.6165 12.22 84.5435 12.0504L81.9857 6.10369L81.985 6.10211C81.6976 5.42747 80.7023 5.42747 80.4148 6.10211L80.414 6.10407L77.8562 12.0374C77.7831 12.2069 77.6227 12.3223 77.4387 12.3377L70.9021 12.8844L70.8995 12.8846L70.8995 12.8846C70.1427 12.9439 69.8537 13.8616 70.4135 14.339L70.4137 14.3392L75.3804 18.5792C75.523 18.7009 75.5855 18.8921 75.5424 19.0746L74.0537 25.3677L80.9447 22.9295ZM80.9447 22.9295L75.3284 26.2628L75.3275 26.2634M80.9447 22.9295L75.3275 26.2634M75.3275 26.2634C74.6626 26.6599 73.8889 26.0669 74.0537 25.3679L75.3275 26.2634Z" fill="#FFBA79" stroke="#FFBA79" stroke-linejoin="round"/>
<path d="M113.425 22.9295C113.582 22.836 113.778 22.8361 113.936 22.9299L119.552 26.2766L119.552 26.2767C120.217 26.6732 120.991 26.0801 120.826 25.381L119.337 19.0879C119.294 18.9055 119.357 18.7142 119.499 18.5925L124.466 14.3525L124.466 14.3524C125.026 13.8749 124.737 12.9572 123.98 12.8979L123.978 12.8977L117.441 12.3511C117.257 12.3357 117.096 12.22 117.023 12.0504L114.466 6.10369L114.465 6.10211C114.178 5.42747 113.182 5.42747 112.895 6.10211L112.894 6.10407L110.336 12.0374C110.263 12.2069 110.103 12.3223 109.919 12.3377L103.382 12.8844L103.38 12.8846L103.38 12.8846C102.623 12.9439 102.334 13.8616 102.893 14.339L102.894 14.3392L107.86 18.5792C108.003 18.7009 108.065 18.8921 108.022 19.0746L106.534 25.3677L113.425 22.9295ZM113.425 22.9295L107.808 26.2628L107.807 26.2634M113.425 22.9295L107.807 26.2634M107.807 26.2634C107.143 26.6599 106.369 26.0669 106.534 25.3679L107.807 26.2634Z" fill="#FFBA79" stroke="#FFBA79" stroke-linejoin="round"/>
<path d="M145.905 22.9295C146.062 22.836 146.258 22.8361 146.416 22.9299L152.032 26.2766L152.032 26.2767C152.697 26.6732 153.471 26.0801 153.306 25.381L151.817 19.0879C151.774 18.9055 151.837 18.7142 151.979 18.5925L156.946 14.3525L156.946 14.3524C157.506 13.8749 157.217 12.9572 156.46 12.8979L156.458 12.8977L149.921 12.3511C149.737 12.3357 149.576 12.22 149.503 12.0504L146.946 6.10369L146.945 6.10211C146.658 5.42747 145.662 5.42747 145.375 6.10211L145.374 6.10407L142.816 12.0374C142.743 12.2069 142.583 12.3223 142.399 12.3377L135.862 12.8844L135.859 12.8846L135.859 12.8846C135.103 12.9439 134.814 13.8616 135.373 14.339L135.374 14.3392L140.34 18.5792C140.483 18.7009 140.545 18.8921 140.502 19.0746L139.014 25.3677L145.905 22.9295ZM145.905 22.9295L140.288 26.2628L140.287 26.2634M145.905 22.9295L140.287 26.2634M140.287 26.2634C139.623 26.6599 138.849 26.0669 139.014 25.3679L140.287 26.2634Z" fill="#FFBA79" stroke="#FFBA79" stroke-linejoin="round"/>
</svg>
